<svg xmlns="http://www.w3.org/2000/svg" xmlns:xlink="http://www.w3.org/1999/xlink" width="335" height="224" viewBox="0 0 335 224">
  <defs>
    <rect id="img-pocket-b" width="75.88" height="75.88" x="0" y="0" rx="3.77"/>
    <filter id="img-pocket-a" width="136.9%" height="136.9%" x="-18.5%" y="-17.1%" filterUnits="objectBoundingBox">
      <feOffset dy="1" in="SourceAlpha" result="shadowOffsetOuter1"/>
      <feGaussianBlur in="shadowOffsetOuter1" result="shadowBlurOuter1" stdDeviation="4.5"/>
      <feColorMatrix in="shadowBlurOuter1" values="0 0 0 0 0.125490196   0 0 0 0 0.0705882353   0 0 0 0 0.22745098  0 0 0 0.24 0"/>
    </filter>
    <polygon id="img-pocket-c" points=".104 .031 17.009 .031 17.009 18.029 .104 18.029"/>
    <polygon id="img-pocket-e" points=".028 .167 11.287 .167 11.287 11.264 .028 11.264"/>
    <rect id="img-pocket-h" width="81.988" height="81.988" x="0" y="0" rx="3.77"/>
    <filter id="img-pocket-g" width="134.2%" height="134.2%" x="-17.1%" y="-15.9%" filterUnits="objectBoundingBox">
      <feOffset dy="1" in="SourceAlpha" result="shadowOffsetOuter1"/>
      <feGaussianBlur in="shadowOffsetOuter1" result="shadowBlurOuter1" stdDeviation="4.5"/>
      <feColorMatrix in="shadowBlurOuter1" values="0 0 0 0 0.125490196   0 0 0 0 0.0705882353   0 0 0 0 0.22745098  0 0 0 0.24 0"/>
    </filter>
    <rect id="img-pocket-j" width="70.985" height="70.985" x="0" y="0" rx="3.77"/>
    <filter id="img-pocket-i" width="139.4%" height="139.4%" x="-19.7%" y="-18.3%" filterUnits="objectBoundingBox">
      <feOffset dy="1" in="SourceAlpha" result="shadowOffsetOuter1"/>
      <feGaussianBlur in="shadowOffsetOuter1" result="shadowBlurOuter1" stdDeviation="4.5"/>
      <feColorMatrix in="shadowBlurOuter1" values="0 0 0 0 0.125490196   0 0 0 0 0.0705882353   0 0 0 0 0.22745098  0 0 0 0.24 0"/>
    </filter>
    <rect id="img-pocket-l" width="55.074" height="55.074" x="0" y="0" rx="3.77"/>
    <filter id="img-pocket-k" width="150.8%" height="150.8%" x="-25.4%" y="-23.6%" filterUnits="objectBoundingBox">
      <feOffset dy="1" in="SourceAlpha" result="shadowOffsetOuter1"/>
      <feGaussianBlur in="shadowOffsetOuter1" result="shadowBlurOuter1" stdDeviation="4.5"/>
      <feColorMatrix in="shadowBlurOuter1" values="0 0 0 0 0.125490196   0 0 0 0 0.0705882353   0 0 0 0 0.22745098  0 0 0 0.24 0"/>
    </filter>
  </defs>
  <g fill="none" fill-rule="evenodd">
    <g transform="translate(25 19)">
      <rect width="252.798" height="175.739" x="1.088" y="1.088" fill="#FFF" stroke="#F0F0F4" stroke-width="2.176" rx="2.176"/>
      <rect width="254.974" height="18.132" y="16.998" fill="#F0F0F4"/>
      <rect width="166.583" height="7.933" x="44.196" y="22.664" fill="#FFF" rx="1.088"/>
      <path fill="#DFDFE6" d="M2.17632294,0 L252.798175,0 C254.000125,-2.20794628e-16 254.974498,0.974372971 254.974498,2.17632294 L254.974498,16.9982999 L254.974498,16.9982999 L0,16.9982999 L0,2.17632294 C-1.47196419e-16,0.974372971 0.974372971,6.64883838e-16 2.17632294,0 Z"/>
      <rect width="49.862" height="14.732" x="21.531" y="3.4" fill="#F0F0F4"/>
      <rect width="49.862" height="2.266" x="21.531" y="3.4" fill="#D1D1D7"/>
      <g opacity=".8" transform="translate(17.38 43.062)">
        <g fill="#F0F0F4" transform="translate(78.083 31.82)">
          <rect width="63.642" height="41.612"/>
          <rect width="63.642" height="7.343" y="48.955"/>
          <rect width="63.642" height="3.672" y="63.642"/>
          <rect width="63.642" height="3.672" y="74.657"/>
          <rect width="63.642" height="3.672" y="84.448"/>
        </g>
        <g fill="#F0F0F4" transform="translate(0 31.73)">
          <rect width="64.866" height="41.612" x=".979" y=".091"/>
          <rect width="64.866" height="7.343" x=".979" y="49.046"/>
          <rect width="64.866" height="3.672" x=".979" y="63.732"/>
          <rect width="64.866" height="3.672" x=".979" y="74.747"/>
          <rect width="64.866" height="3.672" x=".979" y="84.538"/>
        </g>
        <g fill="#F0F0F4" transform="translate(152.985 31.73)">
          <rect width="64.866" height="41.612" x=".979" y=".091"/>
          <rect width="64.866" height="7.343" x=".979" y="49.046"/>
          <rect width="64.866" height="3.672" x=".979" y="63.732"/>
          <rect width="64.866" height="3.672" x=".979" y="74.747"/>
          <rect width="64.866" height="3.672" x=".979" y="84.538"/>
        </g>
        <path fill="#DFDFE6" fill-rule="nonzero" d="M2.18376467,0.00969726317 C0.825931248,0.0981871697 0.00384771118,0.873340851 0.00384771118,2.25203821 L0.00384771118,10.5087282 C0.00384771118,17.214999 6.67370449,22.4852945 12.4435037,22.4436785 C18.9312346,22.3968605 24.9247757,16.9184291 24.9247757,10.5087282 L24.9247757,2.25203821 C24.9247757,0.868138853 24.0507281,0.0877272376 22.6824347,0.00969726317 L2.18376467,0.00969726317 Z M7.43851011,6.72637203 L12.4435037,11.4816138 L17.4536993,6.72637203 C19.6960402,5.78469847 20.6741278,8.34441724 19.7532622,9.09361687 L13.2291173,15.3211919 C13.0158354,15.5241258 11.87643,15.5241258 11.663148,15.3211919 L5.13894719,9.09356093 C4.25964167,8.26633133 5.4042491,5.66499657 7.43851011,6.72637203 Z" transform="translate(96.324)"/>
      </g>
    </g>
    <g transform="translate(213 88)">
      <path fill="#F0F0F4" d="M1.98951966e-13,141.969798 L0.290437001,12.2315978 C0.290437001,5.47651496 5.7570736,0 12.5005545,0 L82.4739205,0 C89.2174014,0 94.684038,5.47651496 94.684038,12.2315978 L94.393601,141.969798"/>
      <rect width="20.688" height="1.799" x="37.169" y="5.397" fill="#D1D1D7" fill-opacity=".6" rx=".899"/>
      <path fill="#FFF" d="M87.7264938,11.9929857 C88.2981609,11.9929857 88.7616112,13.1648611 88.7616112,14.6109918 L88.6413703,141.724016 L6.82004148,141.724016 L6.94028239,14.6109918 C6.94028239,13.1648611 7.4037327,11.9929857 7.97539984,11.9929857 L87.7264938,11.9929857 Z"/>
      <path fill="#D1D1D7" d="M87.7264938,11.9929857 C88.2981609,11.9929857 88.7616112,12.4799614 88.7616112,13.0809046 L88.7616112,16.308589 L6.94028239,16.308589 L6.94028239,13.0809046 C6.94028239,12.4799614 7.4037327,11.9929857 7.97539984,11.9929857 L87.7264938,11.9929857 Z"/>
      <g fill="#F0F0F4" opacity=".8" transform="translate(14.687 45.782)">
        <rect width="64.866" height="31.821" x=".979"/>
        <rect width="64.866" height="7.343" x=".979" y="39.164"/>
        <rect width="64.866" height="3.672" x=".979" y="52.627"/>
        <rect width="64.866" height="3.672" x=".979" y="62.418"/>
        <rect width="64.866" height="3.672" x=".979" y="72.209"/>
        <rect width="45.283" height="3.672" x=".979" y="82"/>
      </g>
      <path fill="#DFDFE6" fill-rule="nonzero" d="M1.63782351,0.00727294738 C0.619448436,0.0736403773 0.00288578338,0.655005638 0.00288578338,1.68902865 L0.00288578338,7.88154616 C0.00288578338,12.9112492 5.00527837,16.8639709 9.33262778,16.8327589 C14.198426,16.7976454 18.6935818,12.6888219 18.6935818,7.88154616 L18.6935818,1.68902865 C18.6935818,0.65110414 18.0380461,0.0657954282 17.0118261,0.00727294738 L1.63782351,0.00727294738 Z M5.57888259,5.04477902 L9.33262778,8.61121032 L13.0902745,5.04477902 C14.7720302,4.33852385 15.5055958,6.25831293 14.8149467,6.82021265 L9.92183799,11.4908939 C9.76187654,11.6430943 8.90732246,11.6430943 8.74736102,11.4908939 L3.85421039,6.8201707 C3.19473125,6.1997485 4.05318683,4.24874743 5.57888259,5.04477902 Z" transform="translate(38.53 22.664)"/>
    </g>
    <g transform="translate(8 45)">
      <use fill="#000" filter="url(#img-pocket-a)" xlink:href="#img-pocket-b"/>
      <use fill="#FFF" xlink:href="#img-pocket-b"/>
      <g transform="translate(7.343 29.373)">
        <polygon fill="#FF2B06" points="0 .205 0 4.818 4.952 4.818 4.952 18.202 10.393 18.202 10.393 4.818 15.343 4.818 15.343 .205"/>
        <polygon fill="#FF2B06" points="16.189 .205 16.189 18.202 31.086 18.202 31.086 13.59 21.633 13.59 21.633 11.347 31.083 11.347 31.083 7.06 21.633 7.06 21.633 4.818 31.083 4.818 31.083 .205"/>
        <g transform="translate(31.896 .003)">
          <g transform="translate(0 .17)">
            <mask id="img-pocket-d" fill="#fff">
              <use xlink:href="#img-pocket-c"/>
            </mask>
            <path fill="#FF2B06" d="M5.54784063,13.416367 L7.67699465,13.416367 C11.0684448,13.416367 11.5642454,10.6174494 11.5642454,8.92680528 C11.5642454,7.79454993 11.2158991,4.64406685 7.28055452,4.64406685 L5.54784063,4.64406685 L5.54784063,13.416367 Z M0.103886017,0.0311935754 L9.03798331,0.0311935754 C14.9273068,0.0311935754 17.008534,4.46785887 17.008534,9.00368367 C17.008534,14.5256609 14.1375994,18.0290702 7.97490922,18.0290702 L0.103886017,18.0290702 L0.103886017,0.0311935754 Z" mask="url(#img-pocket-d)"/>
          </g>
          <g transform="translate(17.534)">
            <mask id="img-pocket-f" fill="#fff">
              <use xlink:href="#img-pocket-e"/>
            </mask>
            <polygon fill="#FF2B06" points="7.297 11.264 5.636 8.459 4.017 11.264 .028 11.264 3.815 5.592 .168 .167 4.159 .167 5.636 2.848 7.156 .167 11.146 .167 7.5 5.592 11.287 11.264" mask="url(#img-pocket-f)"/>
          </g>
        </g>
      </g>
    </g>
    <g transform="translate(67 133)">
      <use fill="#000" filter="url(#img-pocket-g)" xlink:href="#img-pocket-h"/>
      <use fill="#000" xlink:href="#img-pocket-h"/>
      <path fill="#FFF" d="M28.4889911,0.0577254622 C29.7789764,0.173547749 31.8031638,0.820222185 33.3284095,2.18193838 C34.948391,3.784951 35.3178605,6.21721903 34.7502354,8.42829866 C34.244978,10.3980819 33.6797213,11.4219831 31.7068491,12.7836992 C29.7126613,14.154263 27.3016363,14.0384407 27.3016363,14.0384407 L27.3016363,22.5730955 L31.3768529,25.9335504 L27.3008468,29.2835492 L27.3016363,40.9100156 C27.3016363,40.9100156 31.3847475,38.5252025 33.9173502,33.1853125 C33.9173502,33.1853125 34.0215595,32.8949525 34.2599778,32.3447966 C34.4849752,33.7748801 34.3562925,36.6712416 32.7678896,40.388011 C31.5710612,43.1878539 29.3945071,45.8815264 26.6645383,47.416976 C21.8266988,50.1500603 18.1991087,50.4106604 14.3094163,49.5894482 C9.75499462,48.6339144 5.61898924,46.0263043 2.7958636,41.4786709 C0.811938896,38.2831018 -0.0762088521,34.5566806 0.00510600834,30.5487468 C0.164577871,22.6792659 5.9103017,15.8924016 12.5425944,13.3620064 C13.3502167,13.0539513 13.6715288,12.8512622 14.8170421,12.7442875 C14.2888902,13.1118624 13.678634,13.5848034 12.929432,14.0867 C10.7939301,15.5159792 8.96395103,18.3640814 8.18317047,20.5558573 L21.0561813,14.7044188 L21.0561813,33.041339 L10.674721,38.3410129 C11.8581285,40.0115886 15.4517716,42.5419838 18.525947,42.8982982 C23.7561505,43.4878658 26.8247996,41.1609639 26.8247996,41.1609639 L26.8240101,29.2835492 L22.7708986,25.9335504 L26.8263785,22.5835516 L26.8263785,14.0384407 C24.6158775,13.7778405 21.9301187,13.0346475 20.3598735,12.6381171 C18.0514788,12.0590056 10.3534088,9.85757786 9.1431595,9.67419257 C7.9344891,9.49080728 6.44240089,9.54871843 5.54004277,10.3699306 C4.6368952,11.1999903 4.07795421,12.6574208 4.46242351,13.9708777 C4.67952629,14.7140707 5.18162582,15.1484043 5.56135832,15.573086 C5.56135832,15.573086 5.11688971,15.5344786 4.31163576,15.0422338 C2.85823131,14.154263 1.75298078,12.4161244 1.61956125,10.2726077 C1.44903688,7.46311294 2.58428707,4.93352202 4.85873477,3.23479514 C6.83476482,1.94064195 9.06973929,1.1097779 11.668657,1.48700466 C15.4596663,2.03716052 20.5572396,4.21928458 25.0974509,5.32924816 C26.8563782,5.76438606 28.2182047,5.90916392 29.4545064,5.17481845 C30.0308156,4.75013673 31.0436988,3.65867254 30.2155503,2.21089395 C29.2492456,0.511362753 27.396372,0.549970182 25.8269163,0.250762607 C27.1776903,-0.0387931103 27.4737396,-0.0387931103 28.4889911,0.0577254622 Z M13.1820607,36.5160076 L13.1820607,18.8080668 L7.95501518,21.183228 C7.95343625,21.183228 6.62239883,24.2243674 6.85529091,28.6368748 C7.03923617,32.0841965 8.93079351,36.2079525 10.384198,37.9356349 L13.1820607,36.5160076 L13.1820607,36.5160076 Z" transform="translate(23 15)"/>
    </g>
    <g transform="translate(255 8)">
      <use fill="#000" filter="url(#img-pocket-i)" xlink:href="#img-pocket-j"/>
      <use fill="#4C9FEA" xlink:href="#img-pocket-j"/>
      <path fill="#FFF" d="M27.8418456,51.4028609 C42.158962,51.4028609 49.9898207,39.630386 49.9898207,29.4213488 C49.9898207,29.0869719 49.9898207,28.7541013 49.9670566,28.4227368 C51.4904794,27.3290999 52.8055236,25.9749769 53.8506162,24.4237705 C52.4299513,25.0485457 50.9228907,25.4582732 49.3797422,25.6392755 C51.0047122,24.673773 52.2208923,23.1552049 52.8019489,21.3661804 C51.2739564,22.2660688 49.6022936,22.9002652 47.8590987,23.2414019 C45.4462272,20.6950082 41.6121972,20.0717693 38.5069125,21.721162 C35.4016279,23.3705546 33.7973578,26.8823828 34.5936848,30.2874149 C28.33491,29.9760069 22.5036217,27.0420365 18.5510477,22.2156783 C16.4850104,25.7456807 17.5403022,30.2615978 20.9610097,32.5286435 C19.7222486,32.4922048 18.5104963,32.1605476 17.4280176,31.5616618 C17.4280176,31.5932921 17.4280176,31.6264285 17.4280176,31.6595649 C17.4290316,35.3370972 20.0409619,38.5045529 23.6729757,39.2327487 C22.5269835,39.542936 21.3245991,39.588279 20.1581949,39.3652944 C21.1779486,42.5123873 24.1002955,44.6683062 27.4305737,44.730386 C24.674195,46.8803869 21.2691745,48.0475365 17.763409,48.0440304 C17.1440785,48.0428504 16.5253504,48.0056336 15.9104093,47.9325715 C19.4701659,50.1998221 23.6121399,51.4024345 27.8418456,51.3968361"/>
    </g>
    <g transform="translate(189 122)">
      <use fill="#000" filter="url(#img-pocket-k)" xlink:href="#img-pocket-l"/>
      <use fill="#EA3423" xlink:href="#img-pocket-l"/>
      <polygon fill="#FEFEFE" points="18.358 14.687 18.358 41.612 41.612 28.15"/>
    </g>
  </g>
</svg>
